<svg width="38" height="38" viewBox="0 0 38 38" fill="none" xmlns="http://www.w3.org/2000/svg">
<path d="M31.6665 3.16687H6.33317C4.5915 3.16687 3.18234 4.59187 3.18234 6.33354L3.1665 34.8335L9.49984 28.5002H31.6665C33.4082 28.5002 34.8332 27.0752 34.8332 25.3335V6.33354C34.8332 4.59187 33.4082 3.16687 31.6665 3.16687ZM31.6665 25.3335H8.18567L7.2515 26.2677L6.33317 27.186V6.33354H31.6665V25.3335ZM9.49984 19.0002H12.6665V22.1669H9.49984V19.0002ZM9.49984 14.2502H12.6665V17.4169H9.49984V14.2502ZM9.49984 9.5002H12.6665V12.6669H9.49984V9.5002ZM15.8332 19.0002H23.7498V22.1669H15.8332V19.0002ZM15.8332 14.2502H28.4998V17.4169H15.8332V14.2502ZM15.8332 9.5002H28.4998V12.6669H15.8332V9.5002Z" fill="#9BB1D1"/>
</svg>
