<svg width="38" height="38" viewBox="0 0 38 38" fill="none" xmlns="http://www.w3.org/2000/svg">
<path d="M7.125 24.9377V23.7502H4.75V24.9377C4.75 27.1424 5.62578 29.2567 7.18467 30.8156C8.74357 32.3745 10.8579 33.2502 13.0625 33.2502H16.625V30.8752H13.0625C11.4878 30.8752 9.97755 30.2497 8.86405 29.1362C7.75056 28.0227 7.125 26.5125 7.125 24.9377Z" fill="#9BB1D1"/>
<path d="M28.5 13.0627V14.2502H30.875V13.0627C30.875 10.8581 29.9992 8.74381 28.4403 7.18492C26.8814 5.62602 24.7671 4.75024 22.5625 4.75024H19V7.12524H22.5625C23.3422 7.12524 24.1143 7.27882 24.8347 7.57721C25.5551 7.8756 26.2096 8.31295 26.7609 8.8643C27.3123 9.41565 27.7496 10.0702 28.048 10.7906C28.3464 11.5109 28.5 12.283 28.5 13.0627Z" fill="#9BB1D1"/>
<path d="M13.0625 13.0627H5.9375C4.99267 13.0627 4.08653 13.4381 3.41843 14.1062C2.75033 14.7743 2.375 15.6804 2.375 16.6252V19.0002H4.75V16.6252C4.75 16.3103 4.87511 16.0083 5.09781 15.7856C5.32051 15.5629 5.62256 15.4377 5.9375 15.4377H13.0625C13.3774 15.4377 13.6795 15.5629 13.9022 15.7856C14.1249 16.0083 14.25 16.3103 14.25 16.6252V19.0002H16.625V16.6252C16.625 15.6804 16.2497 14.7743 15.5816 14.1062C14.9135 13.4381 14.0073 13.0627 13.0625 13.0627Z" fill="#9BB1D1"/>
<path d="M9.5 11.8752C10.4395 11.8752 11.3578 11.5967 12.139 11.0747C12.9201 10.5528 13.5289 9.81094 13.8884 8.94299C14.2479 8.07504 14.342 7.11998 14.1587 6.19857C13.9755 5.27716 13.5231 4.43079 12.8588 3.76649C12.1945 3.10219 11.3481 2.6498 10.4267 2.46652C9.50527 2.28324 8.5502 2.3773 7.68225 2.73682C6.8143 3.09633 6.07246 3.70515 5.55052 4.48629C5.02858 5.26742 4.75 6.18579 4.75 7.12525C4.75 8.38502 5.25044 9.59321 6.14124 10.484C7.03204 11.3748 8.24022 11.8752 9.5 11.8752ZM9.5 4.75025C9.96973 4.75025 10.4289 4.88954 10.8195 5.15051C11.21 5.41147 11.5145 5.7824 11.6942 6.21637C11.874 6.65035 11.921 7.12788 11.8294 7.58859C11.7377 8.04929 11.5115 8.47248 11.1794 8.80463C10.8472 9.13678 10.424 9.36297 9.96334 9.45461C9.50263 9.54625 9.0251 9.49922 8.59113 9.31946C8.15715 9.1397 7.78623 8.83529 7.52526 8.44473C7.26429 8.05416 7.125 7.59498 7.125 7.12525C7.125 6.49536 7.37522 5.89127 7.82062 5.44587C8.26602 5.00047 8.87011 4.75025 9.5 4.75025Z" fill="#9BB1D1"/>
<path d="M32.0625 29.6877H24.9375C23.9927 29.6877 23.0865 30.0631 22.4184 30.7312C21.7503 31.3993 21.375 32.3054 21.375 33.2502V35.6252H23.75V33.2502C23.75 32.9353 23.8751 32.6333 24.0978 32.4106C24.3205 32.1879 24.6226 32.0627 24.9375 32.0627H32.0625C32.3774 32.0627 32.6795 32.1879 32.9022 32.4106C33.1249 32.6333 33.25 32.9353 33.25 33.2502V35.6252H35.625V33.2502C35.625 32.3054 35.2497 31.3993 34.5816 30.7312C33.9135 30.0631 33.0073 29.6877 32.0625 29.6877Z" fill="#9BB1D1"/>
<path d="M23.75 23.7502C23.75 24.6897 24.0286 25.6081 24.5505 26.3892C25.0725 27.1703 25.8143 27.7792 26.6823 28.1387C27.5502 28.4982 28.5053 28.5923 29.4267 28.409C30.3481 28.2257 31.1945 27.7733 31.8588 27.109C32.5231 26.4447 32.9755 25.5983 33.1587 24.6769C33.342 23.7555 33.2479 22.8004 32.8884 21.9325C32.5289 21.0645 31.9201 20.3227 31.139 19.8008C30.3578 19.2788 29.4395 19.0002 28.5 19.0002C27.2402 19.0002 26.032 19.5007 25.1412 20.3915C24.2504 21.2823 23.75 22.4905 23.75 23.7502ZM30.875 23.7502C30.875 24.22 30.7357 24.6792 30.4747 25.0697C30.2138 25.4603 29.8428 25.7647 29.4089 25.9445C28.9749 26.1242 28.4974 26.1712 28.0367 26.0796C27.576 25.988 27.1528 25.7618 26.8206 25.4296C26.4885 25.0975 26.2623 24.6743 26.1706 24.2136C26.079 23.7529 26.126 23.2753 26.3058 22.8414C26.4855 22.4074 26.79 22.0365 27.1805 21.7755C27.5711 21.5145 28.0303 21.3752 28.5 21.3752C29.1299 21.3752 29.734 21.6255 30.1794 22.0709C30.6248 22.5163 30.875 23.1204 30.875 23.7502Z" fill="#9BB1D1"/>
</svg>
